<svg width="16" height="16" viewBox="0 0 16 16" fill="none" xmlns="http://www.w3.org/2000/svg">
<path d="M9.5 4.058C9.5 3.82133 9.624 3.60733 9.76733 3.41867C9.91467 3.22533 10 2.996 10 2.75C10 2.05933 9.32867 1.5 8.5 1.5C7.67133 1.5 7 2.06 7 2.75C7 2.996 7.08533 3.22533 7.23267 3.41867C7.376 3.60733 7.5 3.82133 7.5 4.058C7.50029 4.11517 7.48909 4.17181 7.46706 4.22456C7.44503 4.27731 7.41263 4.3251 7.37177 4.36508C7.33092 4.40507 7.28244 4.43643 7.22923 4.45732C7.17601 4.47821 7.11915 4.48819 7.062 4.48667C6.13444 4.45995 5.20847 4.39322 4.28667 4.28667C4.41067 5.362 4.482 6.45333 4.49667 7.558C4.49729 7.61593 4.48639 7.67342 4.4646 7.7271C4.44282 7.78079 4.41058 7.82961 4.36977 7.87074C4.32895 7.91186 4.28038 7.94446 4.22686 7.96665C4.17333 7.98885 4.11594 8.00018 4.058 8C3.82133 8 3.60733 7.876 3.41867 7.73267C3.22758 7.58341 2.99246 7.5016 2.75 7.5C2.05933 7.5 1.5 8.17133 1.5 9C1.5 9.82867 2.06 10.5 2.75 10.5C2.996 10.5 3.22533 10.4147 3.41867 10.2673C3.60733 10.124 3.82133 10 4.058 10C4.26467 10 4.428 10.1733 4.41267 10.38C4.32974 11.5103 4.18688 12.6355 3.98467 13.7507C4.99667 13.8773 6.02333 13.9567 7.062 13.9867C7.11915 13.9882 7.17601 13.9782 7.22923 13.9573C7.28244 13.9364 7.33092 13.9051 7.37177 13.8651C7.41263 13.8251 7.44503 13.7773 7.46706 13.7246C7.48909 13.6718 7.50029 13.6152 7.5 13.558C7.5 13.3213 7.376 13.1073 7.23267 12.9187C7.08341 12.7276 7.0016 12.4925 7 12.25C7 11.56 7.672 11 8.5 11C9.32867 11 10 11.56 10 12.25C10 12.496 9.91467 12.7253 9.76733 12.9187C9.624 13.1073 9.50067 13.3213 9.50067 13.558C9.50067 13.78 9.68533 13.9573 9.90733 13.9447C11.1203 13.8733 12.3283 13.7331 13.5253 13.5247C13.7065 12.4835 13.836 11.434 13.9133 10.38C13.9168 10.3313 13.9102 10.2824 13.8939 10.2363C13.8776 10.1903 13.852 10.1481 13.8186 10.1124C13.7853 10.0767 13.7449 10.0483 13.7001 10.029C13.6552 10.0097 13.6068 9.99978 13.558 10C13.3213 10 13.1073 10.124 12.9187 10.2673C12.7253 10.4147 12.496 10.5 12.25 10.5C11.56 10.5 11 9.82867 11 9C11 8.17133 11.56 7.5 12.25 7.5C12.4967 7.5 12.7253 7.58533 12.9187 7.73267C13.1073 7.876 13.3213 8 13.5587 8C13.6166 8.00018 13.674 7.98885 13.7275 7.96665C13.781 7.94446 13.8296 7.91186 13.8704 7.87074C13.9112 7.82961 13.9435 7.78079 13.9653 7.7271C13.9871 7.67342 13.998 7.61593 13.9973 7.558C13.9813 6.36324 13.899 5.17029 13.7507 3.98467C12.4933 4.21267 11.2107 4.36733 9.90667 4.444C9.85419 4.44691 9.80166 4.43905 9.75233 4.42091C9.703 4.40277 9.6579 4.37473 9.61981 4.33851C9.58172 4.30229 9.55144 4.25866 9.53084 4.21031C9.51023 4.16195 9.49974 4.11056 9.5 4.058Z" stroke="black" stroke-linecap="round" stroke-linejoin="round"/>
</svg>
