<svg width="33" height="32" viewBox="0 0 33 32" fill="none" xmlns="http://www.w3.org/2000/svg">
<path d="M27.6667 11L26.8334 25.176C26.7885 25.9401 26.4533 26.6581 25.8963 27.1831C25.3394 27.708 24.6028 28.0003 23.8374 28H9.49608C8.7307 28.0003 7.99414 27.708 7.43718 27.1831C6.88022 26.6581 6.54498 25.9401 6.50008 25.176L5.66675 11M14.0001 16H19.3334M5.16675 11H28.1667C28.9947 11 29.6667 10.328 29.6667 9.5V7.5C29.6667 6.672 28.9947 6 28.1667 6H5.16675C4.33875 6 3.66675 6.672 3.66675 7.5V9.5C3.66675 10.328 4.33875 11 5.16675 11Z" stroke="black" stroke-width="2" stroke-linecap="round" stroke-linejoin="round"/>
</svg>
