<svg width="32" height="32" viewBox="0 0 32 32" fill="none" xmlns="http://www.w3.org/2000/svg">
<path d="M20.999 14V8C20.999 6.67392 20.4722 5.40215 19.5345 4.46447C18.5969 3.52678 17.3251 3 15.999 3C14.6729 3 13.4012 3.52678 12.4635 4.46447C11.5258 5.40215 10.999 6.67392 10.999 8V14M26.1403 11.3427L27.8243 27.3427C27.9177 28.2293 27.2243 29 26.3323 29H5.66567C5.45528 29.0002 5.2472 28.9562 5.05493 28.8708C4.86267 28.7853 4.69053 28.6604 4.5497 28.5041C4.40887 28.3478 4.30249 28.1636 4.23748 27.9635C4.17246 27.7634 4.15027 27.5519 4.17234 27.3427L5.85767 11.3427C5.89655 10.9741 6.0705 10.6329 6.346 10.385C6.6215 10.1371 6.97904 9.99993 7.34967 10H24.6483C25.4163 10 26.0603 10.58 26.1403 11.3427ZM11.499 14C11.499 14.1326 11.4463 14.2598 11.3526 14.3536C11.2588 14.4473 11.1316 14.5 10.999 14.5C10.8664 14.5 10.7392 14.4473 10.6455 14.3536C10.5517 14.2598 10.499 14.1326 10.499 14C10.499 13.8674 10.5517 13.7402 10.6455 13.6464C10.7392 13.5527 10.8664 13.5 10.999 13.5C11.1316 13.5 11.2588 13.5527 11.3526 13.6464C11.4463 13.7402 11.499 13.8674 11.499 14ZM21.499 14C21.499 14.1326 21.4463 14.2598 21.3526 14.3536C21.2588 14.4473 21.1316 14.5 20.999 14.5C20.8664 14.5 20.7392 14.4473 20.6454 14.3536C20.5517 14.2598 20.499 14.1326 20.499 14C20.499 13.8674 20.5517 13.7402 20.6454 13.6464C20.7392 13.5527 20.8664 13.5 20.999 13.5C21.1316 13.5 21.2588 13.5527 21.3526 13.6464C21.4463 13.7402 21.499 13.8674 21.499 14Z" stroke="black" stroke-width="2" stroke-linecap="round" stroke-linejoin="round"/>
</svg>
